<svg width="96" height="96" viewBox="0 0 96 96" fill="none" xmlns="http://www.w3.org/2000/svg">
  <defs>
    <linearGradient id="bagGradient" x1="28" y1="30" x2="70" y2="74" gradientUnits="userSpaceOnUse">
      <stop stop-color="#f98a1f" />
      <stop offset="1" stop-color="#f76a05" />
    </linearGradient>
  </defs>
  <rect x="7" y="7" width="82" height="82" rx="20" fill="#fff7f0" stroke="#f76a05" stroke-width="3" />
  <path
    d="M28 34H68c2.2 0 4 1.8 4 4l-4 30c-.2 1.6-1.6 2.8-3.2 2.8H31.2c-1.6 0-3-1.2-3.2-2.8l-4-30c0-2.2 1.8-4 4-4Z"
    fill="url(#bagGradient)"
    stroke="#f76a05"
    stroke-width="3"
    stroke-linejoin="round"
  />
  <path d="M36 36c0-7.5 6.5-13 12-13s12 5.5 12 13" stroke="#f76a05" stroke-width="3.5" stroke-linecap="round" />
  <path d="M36 36h24" stroke="#f76a05" stroke-width="3" stroke-linecap="round" />
  <path d="M44 42v18" stroke="#fff" stroke-width="4" stroke-linecap="round" stroke-linejoin="round" />
  <path d="M44 51.5 58 42" stroke="#fff" stroke-width="4" stroke-linecap="round" stroke-linejoin="round" />
  <path d="M44 52.5 58 64" stroke="#fff" stroke-width="4" stroke-linecap="round" stroke-linejoin="round" />
</svg>
